<svg width="181" height="53" viewBox="0 0 181 53" fill="none" xmlns="http://www.w3.org/2000/svg">
<g clip-path="url(#clip0_1939_23439)">
<path d="M63.0527 24.4952C62.8578 24.4952 62.6981 24.4329 62.5737 24.3083C62.4499 24.1837 62.3873 24.0234 62.3873 23.8277V6.47213C62.3873 6.27634 62.4499 6.11614 62.5737 5.99151C62.6981 5.86689 62.8578 5.80461 63.0527 5.80461H71.1709C72.6974 5.80461 73.9483 6.01821 74.9239 6.44543C75.9 6.87264 76.6187 7.48676 77.0798 8.28778C77.5589 9.07099 77.7985 10.0055 77.7985 11.0914C77.7985 11.7322 77.6747 12.3018 77.4258 12.8002C77.1956 13.2808 76.9028 13.6814 76.5475 14.0018C76.2108 14.3222 75.8914 14.5536 75.5893 14.696C76.264 15.0164 76.8582 15.5415 77.3726 16.2713C77.9049 17.0011 78.1711 17.8556 78.1711 18.8346C78.1711 20.0094 77.9049 21.0241 77.3726 21.8785C76.8582 22.7151 76.095 23.3649 75.0836 23.8277C74.0901 24.2727 72.8657 24.4952 71.4104 24.4952H63.0527ZM67.1517 21.0241H70.8781C71.6413 21.0241 72.2183 20.8016 72.6082 20.3566C72.9988 19.9115 73.1938 19.4042 73.1938 18.8346C73.1938 18.2116 72.9901 17.6865 72.5816 17.2593C72.1916 16.832 71.6234 16.6184 70.8781 16.6184H67.1517V21.0241ZM67.1517 13.2274H70.6385C71.3665 13.2274 71.9075 13.0405 72.2622 12.6667C72.6348 12.2929 72.8211 11.8123 72.8211 11.2249C72.8211 10.6553 72.6348 10.1924 72.2622 9.83643C71.9075 9.46262 71.3665 9.27571 70.6385 9.27571H67.1517V13.2274ZM81.7937 24.4952C81.5987 24.4952 81.439 24.4329 81.3146 24.3083C81.1908 24.1837 81.1282 24.0234 81.1282 23.8277V6.47213C81.1282 6.27634 81.1908 6.11614 81.3146 5.99151C81.439 5.86689 81.5987 5.80461 81.7937 5.80461H85.3603C85.5559 5.80461 85.7156 5.86689 85.8394 5.99151C85.9638 6.11614 86.0257 6.27634 86.0257 6.47213V23.8277C86.0257 24.0234 85.9638 24.1837 85.8394 24.3083C85.7156 24.4329 85.5559 24.4952 85.3603 24.4952H81.7937ZM90.4235 24.4952C90.2285 24.4952 90.0688 24.4329 89.9444 24.3083C89.82 24.1837 89.7581 24.0234 89.7581 23.8277V6.47213C89.7581 6.27634 89.82 6.11614 89.9444 5.99151C90.0688 5.86689 90.2285 5.80461 90.4235 5.80461H93.2449C93.5463 5.80461 93.7592 5.87583 93.8837 6.01821C94.0254 6.14284 94.1146 6.2407 94.1498 6.31192L100.644 16.5917V6.47213C100.644 6.27634 100.706 6.11614 100.831 5.99151C100.955 5.86689 101.115 5.80461 101.31 5.80461H104.504C104.699 5.80461 104.858 5.86689 104.983 5.99151C105.107 6.11614 105.169 6.27634 105.169 6.47213V23.8277C105.169 24.0057 105.107 24.1659 104.983 24.3083C104.858 24.4329 104.699 24.4952 104.504 24.4952H101.656C101.372 24.4952 101.159 24.424 101.017 24.2816C100.893 24.1392 100.813 24.0413 100.777 23.9879L94.2829 14.1086V23.8277C94.2829 24.0234 94.221 24.1837 94.0966 24.3083C93.9722 24.4329 93.8125 24.4952 93.6175 24.4952H90.4235ZM107.824 24.4952C107.682 24.4952 107.549 24.4418 107.425 24.335C107.319 24.2104 107.265 24.0768 107.265 23.9345C107.265 23.8455 107.274 23.7654 107.292 23.6942L113.547 6.55223C113.6 6.35645 113.707 6.1873 113.866 6.04491C114.044 5.88471 114.283 5.80461 114.585 5.80461H118.524C118.826 5.80461 119.057 5.88471 119.216 6.04491C119.394 6.1873 119.509 6.35645 119.562 6.55223L125.791 23.6942C125.826 23.7654 125.844 23.8455 125.844 23.9345C125.844 24.0768 125.782 24.2104 125.657 24.335C125.551 24.4418 125.418 24.4952 125.258 24.4952H121.984C121.718 24.4952 121.514 24.4329 121.372 24.3083C121.248 24.1659 121.168 24.0413 121.133 23.9345L120.095 21.211H112.988L111.976 23.9345C111.941 24.0413 111.861 24.1659 111.737 24.3083C111.612 24.4329 111.4 24.4952 111.098 24.4952H107.824ZM114.079 17.3661H119.03L116.528 10.317L114.079 17.3661ZM128.607 24.4952C128.412 24.4952 128.253 24.4329 128.128 24.3083C128.004 24.1837 127.942 24.0234 127.942 23.8277V6.47213C127.942 6.27634 128.004 6.11614 128.128 5.99151C128.253 5.86689 128.412 5.80461 128.607 5.80461H131.429C131.73 5.80461 131.943 5.87583 132.067 6.01821C132.209 6.14284 132.298 6.2407 132.334 6.31192L138.828 16.5917V6.47213C138.828 6.27634 138.89 6.11614 139.014 5.99151C139.139 5.86689 139.299 5.80461 139.494 5.80461H142.688C142.883 5.80461 143.042 5.86689 143.167 5.99151C143.291 6.11614 143.353 6.27634 143.353 6.47213V23.8277C143.353 24.0057 143.291 24.1659 143.167 24.3083C143.042 24.4329 142.883 24.4952 142.688 24.4952H139.84C139.555 24.4952 139.343 24.424 139.201 24.2816C139.076 24.1392 138.997 24.0413 138.961 23.9879L132.467 14.1086V23.8277C132.467 24.0234 132.405 24.1837 132.28 24.3083C132.156 24.4329 131.996 24.4952 131.801 24.4952H128.607ZM154.712 24.7622C153.026 24.7622 151.58 24.4863 150.373 23.9345C149.184 23.3826 148.253 22.5727 147.578 21.5047C146.922 20.4367 146.558 19.1105 146.487 17.5263C146.469 16.7965 146.461 16.0132 146.461 15.1766C146.461 14.34 146.469 13.539 146.487 12.7735C146.558 11.2249 146.931 9.91653 147.605 8.8485C148.279 7.76264 149.22 6.94386 150.426 6.39202C151.633 5.82243 153.062 5.5376 154.712 5.5376C155.883 5.5376 156.966 5.68892 157.959 5.99151C158.952 6.27634 159.822 6.70356 160.567 7.27315C161.313 7.82499 161.89 8.50139 162.298 9.30241C162.723 10.0856 162.945 10.9757 162.963 11.9725C162.981 12.1327 162.928 12.2662 162.803 12.373C162.697 12.4798 162.564 12.5332 162.404 12.5332H158.811C158.58 12.5332 158.403 12.4887 158.278 12.3997C158.154 12.2929 158.047 12.106 157.959 11.839C157.711 10.8956 157.302 10.2548 156.735 9.91653C156.184 9.56054 155.502 9.38252 154.685 9.38252C153.709 9.38252 152.937 9.6584 152.369 10.2102C151.802 10.7443 151.491 11.6432 151.438 12.907C151.385 14.3667 151.385 15.8619 151.438 17.3928C151.491 18.6566 151.802 19.5644 152.369 20.1162C152.937 20.6503 153.709 20.9173 154.685 20.9173C155.502 20.9173 156.194 20.7392 156.761 20.3833C157.329 20.0273 157.728 19.3864 157.959 18.4608C158.03 18.1938 158.127 18.0158 158.252 17.9268C158.394 17.82 158.58 17.7666 158.811 17.7666H162.404C162.564 17.7666 162.697 17.82 162.803 17.9268C162.928 18.0336 162.981 18.1671 162.963 18.3273C162.945 19.3241 162.723 20.2231 162.298 21.0241C161.89 21.8073 161.313 22.4837 160.567 23.0533C159.822 23.6052 158.952 24.0324 157.959 24.335C156.966 24.6198 155.883 24.7622 154.712 24.7622ZM166.427 24.4952C166.231 24.4952 166.072 24.4329 165.948 24.3083C165.824 24.1837 165.762 24.0234 165.762 23.8277V6.47213C165.762 6.27634 165.824 6.11614 165.948 5.99151C166.072 5.86689 166.231 5.80461 166.427 5.80461H178.857C179.052 5.80461 179.212 5.86689 179.336 5.99151C179.46 6.11614 179.523 6.27634 179.523 6.47213V8.98201C179.523 9.17779 179.46 9.33799 179.336 9.46262C179.212 9.58724 179.052 9.64953 178.857 9.64953H170.366V13.2541H178.272C178.467 13.2541 178.626 13.3254 178.751 13.4677C178.874 13.5924 178.937 13.7526 178.937 13.9484V16.2713C178.937 16.4494 178.874 16.6096 178.751 16.7519C178.626 16.8766 178.467 16.9388 178.272 16.9388H170.366V20.6503H179.07C179.265 20.6503 179.425 20.7125 179.549 20.8372C179.673 20.9618 179.736 21.122 179.736 21.3178V23.8277C179.736 24.0234 179.673 24.1837 179.549 24.3083C179.425 24.4329 179.265 24.4952 179.07 24.4952H166.427Z" fill="#F2B80E"/>
<path d="M148.334 41.8511C148.217 41.8511 148.126 41.8137 148.062 41.739C148.009 41.6642 147.993 41.5734 148.014 41.4666L150.234 31.0373C150.255 30.9198 150.309 30.8237 150.394 30.7489C150.479 30.6742 150.58 30.6368 150.697 30.6368H154.786C155.414 30.6368 155.973 30.7115 156.462 30.8611C156.963 31.0106 157.373 31.2349 157.692 31.5339C158.012 31.833 158.23 32.2068 158.347 32.6553C158.475 33.0932 158.475 33.6059 158.347 34.1933C158.091 35.3788 157.57 36.2653 156.782 36.8527C155.994 37.4295 154.951 37.7178 153.652 37.7178H151.096L150.298 41.4666C150.277 41.5734 150.223 41.6642 150.138 41.739C150.053 41.8137 149.952 41.8511 149.835 41.8511H148.334ZM151.448 35.9396H153.7C154.285 35.9396 154.791 35.7954 155.217 35.507C155.653 35.2079 155.935 34.7701 156.063 34.1933C156.138 33.8302 156.154 33.5205 156.111 33.2641C156.069 32.9971 155.925 32.7889 155.68 32.6393C155.446 32.4898 155.073 32.415 154.562 32.415H152.198L151.448 35.9396ZM158.684 41.8511C158.578 41.8511 158.493 41.8137 158.429 41.739C158.376 41.6642 158.36 41.5734 158.381 41.4666L160.633 30.8611C160.654 30.7543 160.707 30.6635 160.792 30.5887C160.877 30.5139 160.973 30.4766 161.08 30.4766H162.405C162.522 30.4766 162.608 30.5139 162.661 30.5887C162.725 30.6635 162.746 30.7543 162.725 30.8611L160.473 41.4666C160.452 41.5734 160.398 41.6642 160.313 41.739C160.228 41.8137 160.127 41.8511 160.01 41.8511H158.684ZM165.722 42.0113C165.03 42.0113 164.465 41.8671 164.029 41.5788C163.592 41.2797 163.3 40.8632 163.151 40.3292C163.012 39.7845 163.017 39.1436 163.167 38.4067L164.125 33.9049C164.146 33.7981 164.199 33.7074 164.284 33.6326C164.38 33.5578 164.481 33.5205 164.588 33.5205H165.993C166.1 33.5205 166.18 33.5578 166.233 33.6326C166.286 33.7074 166.302 33.7981 166.281 33.9049L165.354 38.3106C165.259 38.7485 165.227 39.1169 165.259 39.416C165.301 39.7044 165.424 39.9233 165.626 40.0728C165.828 40.2224 166.142 40.2971 166.568 40.2971C167.143 40.2971 167.643 40.1209 168.069 39.7684C168.495 39.416 168.772 38.93 168.9 38.3106L169.842 33.9049C169.863 33.7981 169.917 33.7074 170.002 33.6326C170.098 33.5578 170.199 33.5205 170.305 33.5205H171.695C171.812 33.5205 171.897 33.5578 171.95 33.6326C172.003 33.7074 172.019 33.7981 171.998 33.9049L170.401 41.4666C170.38 41.5734 170.326 41.6642 170.241 41.739C170.156 41.8137 170.055 41.8511 169.938 41.8511H168.644C168.538 41.8511 168.453 41.8137 168.389 41.739C168.336 41.6642 168.32 41.5734 168.341 41.4666L168.469 40.8098C168.234 41.0554 167.99 41.269 167.734 41.4506C167.489 41.6322 167.207 41.771 166.888 41.8671C166.579 41.9633 166.19 42.0113 165.722 42.0113ZM175.768 42.0113C175.129 42.0113 174.597 41.9366 174.171 41.787C173.756 41.6375 173.426 41.4506 173.181 41.2263C172.936 41.002 172.771 40.7777 172.686 40.5534C172.601 40.3292 172.569 40.1423 172.59 39.9927C172.612 39.8753 172.665 39.7845 172.75 39.7204C172.846 39.6456 172.936 39.6082 173.021 39.6082H174.299C174.342 39.6082 174.379 39.6136 174.411 39.6243C174.443 39.6349 174.475 39.667 174.507 39.7204C174.624 39.8379 174.746 39.9607 174.874 40.0889C175.002 40.217 175.161 40.3292 175.353 40.4253C175.555 40.5107 175.816 40.5534 176.136 40.5534C176.551 40.5534 176.913 40.4733 177.222 40.3131C177.541 40.1423 177.733 39.902 177.796 39.5922C177.839 39.3679 177.812 39.1864 177.717 39.0475C177.621 38.9087 177.424 38.7859 177.126 38.6791C176.828 38.5616 176.386 38.4387 175.8 38.3106C175.225 38.1717 174.762 37.9955 174.411 37.7819C174.07 37.5683 173.836 37.3013 173.708 36.9809C173.591 36.6605 173.58 36.2867 173.676 35.8594C173.761 35.4429 173.969 35.0477 174.299 34.6739C174.629 34.2894 175.066 33.9744 175.609 33.7287C176.162 33.4831 176.806 33.3602 177.541 33.3602C178.116 33.3602 178.6 33.435 178.994 33.5845C179.399 33.7234 179.718 33.8996 179.952 34.1132C180.197 34.3268 180.368 34.5458 180.463 34.7701C180.559 34.9837 180.591 35.1706 180.559 35.3308C180.549 35.4483 180.495 35.5444 180.4 35.6191C180.314 35.6832 180.224 35.7153 180.128 35.7153H178.962C178.909 35.7153 178.861 35.7046 178.819 35.6832C178.776 35.6619 178.744 35.6352 178.723 35.6031C178.616 35.4963 178.504 35.3842 178.387 35.2667C178.281 35.1492 178.137 35.0477 177.956 34.9623C177.786 34.8662 177.541 34.8181 177.222 34.8181C176.817 34.8181 176.487 34.9089 176.231 35.0905C175.987 35.2613 175.832 35.4803 175.768 35.7473C175.736 35.9289 175.752 36.0891 175.816 36.2279C175.891 36.3561 176.072 36.4789 176.359 36.5964C176.647 36.7139 177.083 36.8367 177.669 36.9649C178.361 37.093 178.888 37.2853 179.25 37.5416C179.622 37.7872 179.862 38.0756 179.968 38.4067C180.086 38.7271 180.101 39.0849 180.016 39.4801C179.92 39.9607 179.686 40.3932 179.314 40.7777C178.952 41.1622 178.473 41.4666 177.876 41.6909C177.28 41.9045 176.577 42.0113 175.768 42.0113Z" fill="url(#paint0_linear_1939_23439)"/>
<path d="M14.6796 19.697L8.66269 26.1377L14.6796 32.1502L10.8385 36.6345L0.34314 26.1373L10.6513 15.7417L14.6796 19.697Z" fill="#F2B80E"/>
<path d="M37.8042 32.4966L43.8218 26.0563L37.8042 20.0433L42.0105 15.9248L52.1407 26.0565L41.8325 36.4521L37.8042 32.4966Z" fill="#F2B80E"/>
<path d="M26.4308 8.34024L35.3792 17.316L39.5378 13.1453L26.4302 -0.00390625L13.3234 13.1438L17.4826 17.316L26.4308 8.34024Z" fill="white"/>
<path d="M26.4318 44.6565L17.4833 35.6807L13.324 39.8514L26.4318 53.0006L39.5386 39.8529L35.3792 35.6807L26.4318 44.6565Z" fill="white"/>
<path d="M30.6084 27.251L26.5094 31.3622L22.4127 27.251H13.9547L26.5096 39.7074L38.9273 27.251H30.6084Z" fill="#F2B80E"/>
<path d="M30.6004 25.1252L26.5016 21.0142L22.405 25.1252H13.9465L26.5016 12.6689L38.9191 25.1252H30.6004Z" fill="white"/>
<path d="M61.855 41.6841H142.371" stroke="#F2B80E" stroke-width="0.5"/>
</g>
<defs>
<linearGradient id="paint0_linear_1939_23439" x1="164.572" y1="36.2442" x2="166.916" y2="92.6492" gradientUnits="userSpaceOnUse">
<stop stop-color="#F2B80E"/>
<stop offset="1" stop-color="#161404"/>
</linearGradient>
<clipPath id="clip0_1939_23439">
<rect width="181" height="53" fill="white"/>
</clipPath>
</defs>
</svg>
